# xmcd
#
# Track frame offsets:
#	150
#	22465
#	42735
#	70797
#	97512
#	112254
#	129435
#	151521
#	171157
#	183486
#	204163
#	238310
#
# Disc length: 3426 seconds
#
# Revision: 0
# Processed by: cddbd v1.5.1PL0 Copyright (c) Steve Scherf et al.
# Submitted via: dBpowerAMP V4.0
#
DISCID=a20d600c
DTITLE=Blue Hyenas - San Trquair
DYEAR=1900
DGENRE=
TTITLE0=San Traquir
TTITLE1=I just Cant Say
TTITLE2=Blues At Home
TTITLE3=Family Man
TTITLE4=Lets Get High
TTITLE5=Tennessee Whiskey
TTITLE6=Murder My Baby
TTITLE7=I Was A Fool
TTITLE8=That Aint Gona Do It
TTITLE9=Love To Win
TTITLE10=Shotgun Blues
TTITLE11=unknown
EXTD=
EXTT0=
EXTT1=
EXTT2=
EXTT3=
EXTT4=
EXTT5=
EXTT6=
EXTT7=
EXTT8=
EXTT9=
EXTT10=
EXTT11=
PLAYORDER=
